<svg width="375" height="41" viewBox="0 0 375 41" fill="none" xmlns="http://www.w3.org/2000/svg">
<g clip-path="url(#clip0_844_62272)">
<path d="M61.4583 9.54503H55.2083V30.5693H50.0868V9.54503H43.9409V5.29156H61.4583V9.54503Z" fill="#006064"/>
<path d="M70.852 16.5242L69.2201 16.3853C67.8775 16.3853 66.9689 16.9756 66.4944 18.1561V30.5693H61.5638V11.7846H66.1993L66.3381 13.8159C67.1136 12.2302 68.1842 11.4374 69.5499 11.4374C70.1055 11.4374 70.5569 11.5126 70.9041 11.6631L70.852 16.5242Z" fill="#006064"/>
<path d="M80.3673 30.5693C80.2284 30.28 80.0895 29.7939 79.9506 29.111C79.071 30.3147 77.8789 30.9166 76.3743 30.9166C74.8002 30.9166 73.4923 30.3957 72.4506 29.3541C71.4205 28.3124 70.9055 26.964 70.9055 25.3089C70.9055 23.3413 71.5305 21.8193 72.7805 20.7429C74.0421 19.6666 75.8534 19.1168 78.2145 19.0936H79.7076V17.5832C79.7076 16.7383 79.5629 16.1423 79.2736 15.795C78.9842 15.4478 78.5618 15.2742 78.0062 15.2742C76.7793 15.2742 76.1659 15.9918 76.1659 17.427H71.2527C71.2527 15.6909 71.9009 14.2615 73.1972 13.1388C74.505 12.0045 76.1543 11.4374 78.1451 11.4374C80.2053 11.4374 81.7967 11.9756 82.9194 13.052C84.0536 14.1168 84.6208 15.6446 84.6208 17.6353V26.4721C84.6439 28.0925 84.8754 29.3598 85.3152 30.2742V30.5693H80.3673ZM77.468 27.0624C78.012 27.0624 78.4749 26.9524 78.8569 26.7325C79.2388 26.5126 79.5224 26.2522 79.7076 25.9513V22.045H78.527C77.6937 22.045 77.034 22.3112 76.5479 22.8436C76.0733 23.376 75.8361 24.0879 75.8361 24.9791C75.8361 26.3679 76.38 27.0624 77.468 27.0624Z" fill="#006064"/>
<path d="M91.2541 11.7846L91.393 13.6423C92.5041 12.1723 93.9567 11.4374 95.7506 11.4374C98.9798 11.4374 100.641 13.7001 100.733 18.2256V30.5693H95.8027V18.5902C95.8027 17.5254 95.6407 16.7557 95.3166 16.2811C95.0041 15.795 94.4486 15.552 93.6499 15.552C92.7587 15.552 92.0643 16.0092 91.5666 16.9235V30.5693H86.6361V11.7846H91.2541Z" fill="#006064"/>
<path d="M111.151 25.5346C111.151 25.1179 110.949 24.736 110.544 24.3888C110.15 24.03 109.265 23.5497 107.887 22.9478C105.862 22.126 104.467 21.2754 103.703 20.3957C102.951 19.5161 102.575 18.4223 102.575 17.1145C102.575 15.471 103.165 14.1168 104.346 13.052C105.538 11.9756 107.112 11.4374 109.068 11.4374C111.128 11.4374 112.777 11.9698 114.016 13.0346C115.254 14.0994 115.874 15.5288 115.874 17.3228H110.96C110.96 15.795 110.324 15.0311 109.051 15.0311C108.53 15.0311 108.102 15.1932 107.766 15.5173C107.43 15.8413 107.262 16.2927 107.262 16.8714C107.262 17.2881 107.448 17.6585 107.818 17.9825C108.188 18.295 109.062 18.7464 110.44 19.3367C112.442 20.0774 113.854 20.905 114.676 21.8193C115.509 22.7221 115.926 23.8969 115.926 25.3436C115.926 27.0219 115.295 28.3703 114.033 29.3888C112.772 30.4073 111.117 30.9166 109.068 30.9166C107.691 30.9166 106.475 30.6504 105.422 30.1179C104.369 29.574 103.541 28.8216 102.94 27.861C102.349 26.9004 102.054 25.8645 102.054 24.7534H106.724C106.747 25.6098 106.944 26.2522 107.315 26.6804C107.696 27.1087 108.316 27.3228 109.172 27.3228C110.492 27.3228 111.151 26.7267 111.151 25.5346Z" fill="#006064"/>
<path d="M132.194 21.7673C132.194 24.7186 131.685 26.9814 130.667 28.5554C129.66 30.1295 128.155 30.9166 126.153 30.9166C124.625 30.9166 123.398 30.2973 122.472 29.0589V37.7916H117.559V11.7846H122.108L122.281 13.5034C123.219 12.126 124.498 11.4374 126.118 11.4374C128.12 11.4374 129.625 12.1666 130.632 13.6249C131.65 15.0832 132.171 17.317 132.194 20.3263V21.7673ZM127.299 20.5346C127.299 18.7175 127.096 17.4328 126.691 16.6804C126.297 15.9281 125.626 15.552 124.677 15.552C123.67 15.552 122.935 15.9744 122.472 16.8193V25.6214C122.912 26.4316 123.659 26.8367 124.712 26.8367C125.684 26.8367 126.355 26.4258 126.726 25.6041C127.108 24.7823 127.299 23.5034 127.299 21.7673V20.5346Z" fill="#006064"/>
<path d="M133.168 20.5693C133.168 17.7221 133.839 15.4883 135.182 13.8679C136.524 12.2476 138.382 11.4374 140.755 11.4374C143.151 11.4374 145.02 12.2476 146.362 13.8679C147.705 15.4883 148.376 17.7337 148.376 20.6041V21.802C148.376 24.6608 147.711 26.8946 146.38 28.5034C145.049 30.1122 143.185 30.9166 140.79 30.9166C138.382 30.9166 136.507 30.1122 135.165 28.5034C133.834 26.883 133.168 24.6376 133.168 21.7673V20.5693ZM138.099 21.802C138.099 25.1585 138.996 26.8367 140.79 26.8367C142.445 26.8367 143.336 25.4362 143.463 22.6353L143.481 20.5693C143.481 18.8564 143.243 17.589 142.769 16.7673C142.294 15.9339 141.623 15.5173 140.755 15.5173C139.921 15.5173 139.268 15.9339 138.793 16.7673C138.33 17.589 138.099 18.8564 138.099 20.5693V21.802Z" fill="#006064"/>
<path d="M159.298 16.5242L157.666 16.3853C156.323 16.3853 155.415 16.9756 154.94 18.1561V30.5693H150.01V11.7846H154.645L154.784 13.8159C155.559 12.2302 156.63 11.4374 157.996 11.4374C158.551 11.4374 159.003 11.5126 159.35 11.6631L159.298 16.5242Z" fill="#006064"/>
<path d="M166.99 7.16656V11.7846H169.508V15.4825H166.99V24.8054C166.99 25.5462 167.089 26.0554 167.285 26.3332C167.494 26.611 167.887 26.7499 168.466 26.7499C168.94 26.7499 169.328 26.7094 169.629 26.6284L169.594 30.4478C168.761 30.7603 167.858 30.9166 166.886 30.9166C163.715 30.9166 162.112 29.0994 162.077 25.4652V15.4825H159.907V11.7846H162.077V7.16656H166.99Z" fill="#006064"/>
<path d="M177.809 30.5693V5.29156H184.493C187.444 5.29156 189.794 6.22906 191.542 8.10406C193.301 9.97906 194.198 12.5485 194.233 15.8124V19.9096C194.233 23.2314 193.353 25.8413 191.594 27.7395C189.846 29.626 187.433 30.5693 184.354 30.5693H177.809ZM182.913 9.54503V26.3332H184.441C186.142 26.3332 187.34 25.8876 188.035 24.9964C188.729 24.0936 189.094 22.5427 189.128 20.3436V15.9513C189.128 13.5902 188.799 11.9467 188.139 11.0207C187.479 10.0832 186.356 9.59133 184.771 9.54503H182.913Z" fill="#006064"/>
<path d="M205.171 30.5693C205.033 30.28 204.894 29.7939 204.755 29.111C203.875 30.3147 202.683 30.9166 201.178 30.9166C199.604 30.9166 198.296 30.3957 197.255 29.3541C196.225 28.3124 195.71 26.964 195.71 25.3089C195.71 23.3413 196.335 21.8193 197.585 20.7429C198.846 19.6666 200.658 19.1168 203.019 19.0936H204.512V17.5832C204.512 16.7383 204.367 16.1423 204.078 15.795C203.788 15.4478 203.366 15.2742 202.81 15.2742C201.584 15.2742 200.97 15.9918 200.97 17.427H196.057C196.057 15.6909 196.705 14.2615 198.001 13.1388C199.309 12.0045 200.959 11.4374 202.949 11.4374C205.009 11.4374 206.601 11.9756 207.724 13.052C208.858 14.1168 209.425 15.6446 209.425 17.6353V26.4721C209.448 28.0925 209.68 29.3598 210.119 30.2742V30.5693H205.171ZM202.272 27.0624C202.816 27.0624 203.279 26.9524 203.661 26.7325C204.043 26.5126 204.327 26.2522 204.512 25.9513V22.045H203.331C202.498 22.045 201.838 22.3112 201.352 22.8436C200.877 23.376 200.64 24.0879 200.64 24.9791C200.64 26.3679 201.184 27.0624 202.272 27.0624Z" fill="#006064"/>
<path d="M217.274 7.16656V11.7846H219.791V15.4825H217.274V24.8054C217.274 25.5462 217.372 26.0554 217.569 26.3332C217.777 26.611 218.171 26.7499 218.749 26.7499C219.224 26.7499 219.612 26.7094 219.912 26.6284L219.878 30.4478C219.044 30.7603 218.142 30.9166 217.169 30.9166C213.998 30.9166 212.395 29.0994 212.36 25.4652V15.4825H210.19V11.7846H212.36V7.16656H217.274Z" fill="#006064"/>
<path d="M230.001 30.5693C229.862 30.28 229.723 29.7939 229.584 29.111C228.704 30.3147 227.512 30.9166 226.008 30.9166C224.433 30.9166 223.126 30.3957 222.084 29.3541C221.054 28.3124 220.539 26.964 220.539 25.3089C220.539 23.3413 221.164 21.8193 222.414 20.7429C223.675 19.6666 225.487 19.1168 227.848 19.0936H229.341V17.5832C229.341 16.7383 229.196 16.1423 228.907 15.795C228.618 15.4478 228.195 15.2742 227.64 15.2742C226.413 15.2742 225.799 15.9918 225.799 17.427H220.886C220.886 15.6909 221.534 14.2615 222.83 13.1388C224.138 12.0045 225.788 11.4374 227.778 11.4374C229.839 11.4374 231.43 11.9756 232.553 13.052C233.687 14.1168 234.254 15.6446 234.254 17.6353V26.4721C234.277 28.0925 234.509 29.3598 234.949 30.2742V30.5693H230.001ZM227.101 27.0624C227.645 27.0624 228.108 26.9524 228.49 26.7325C228.872 26.5126 229.156 26.2522 229.341 25.9513V22.045H228.16C227.327 22.045 226.667 22.3112 226.181 22.8436C225.707 23.376 225.469 24.0879 225.469 24.9791C225.469 26.3679 226.013 27.0624 227.101 27.0624Z" fill="#006064"/>
<path d="M260.542 22.1492C260.414 25.0311 259.604 27.2129 258.111 28.6943C256.618 30.1758 254.512 30.9166 251.792 30.9166C248.933 30.9166 246.74 29.9791 245.212 28.1041C243.696 26.2175 242.937 23.5323 242.937 20.0485V15.795C242.937 12.3228 243.724 9.6492 245.299 7.7742C246.873 5.88762 249.06 4.94434 251.861 4.94434C254.616 4.94434 256.705 5.71401 258.128 7.25336C259.564 8.79272 260.38 11.0034 260.576 13.8853H255.455C255.409 12.1029 255.131 10.876 254.621 10.2048C254.124 9.52188 253.204 9.18045 251.861 9.18045C250.495 9.18045 249.529 9.66077 248.962 10.6214C248.395 11.5705 248.094 13.1388 248.059 15.3263V20.1006C248.059 22.6122 248.337 24.3367 248.892 25.2742C249.459 26.2117 250.426 26.6804 251.792 26.6804C253.134 26.6804 254.06 26.3564 254.569 25.7082C255.079 25.0485 255.368 23.8622 255.437 22.1492H260.542Z" fill="#006064"/>
<path d="M261.446 20.5693C261.446 17.7221 262.117 15.4883 263.46 13.8679C264.802 12.2476 266.66 11.4374 269.033 11.4374C271.428 11.4374 273.298 12.2476 274.64 13.8679C275.983 15.4883 276.654 17.7337 276.654 20.6041V21.802C276.654 24.6608 275.989 26.8946 274.658 28.5034C273.327 30.1122 271.463 30.9166 269.067 30.9166C266.66 30.9166 264.785 30.1122 263.442 28.5034C262.111 26.883 261.446 24.6376 261.446 21.7673V20.5693ZM266.376 21.802C266.376 25.1585 267.273 26.8367 269.067 26.8367C270.722 26.8367 271.614 25.4362 271.741 22.6353L271.758 20.5693C271.758 18.8564 271.521 17.589 271.046 16.7673C270.572 15.9339 269.901 15.5173 269.033 15.5173C268.199 15.5173 267.545 15.9339 267.071 16.7673C266.608 17.589 266.376 18.8564 266.376 20.5693V21.802Z" fill="#006064"/>
<path d="M282.923 11.7846L283.062 13.5207C284.161 12.1318 285.614 11.4374 287.419 11.4374C289.294 11.4374 290.62 12.2823 291.395 13.9721C292.471 12.2823 294.005 11.4374 295.996 11.4374C299.283 11.4374 300.967 13.7117 301.048 18.2603V30.5693H296.135V18.5728C296.135 17.4848 295.984 16.7094 295.683 16.2464C295.382 15.7835 294.873 15.552 294.156 15.552C293.241 15.552 292.558 16.1133 292.107 17.236L292.142 17.8263V30.5693H287.228V18.6075C287.228 17.5311 287.084 16.7557 286.794 16.2811C286.505 15.795 285.99 15.552 285.249 15.552C284.404 15.552 283.733 16.0092 283.235 16.9235V30.5693H278.322V11.7846H282.923Z" fill="#006064"/>
<path d="M307.89 11.7846L308.028 13.5207C309.128 12.1318 310.58 11.4374 312.386 11.4374C314.261 11.4374 315.586 12.2823 316.362 13.9721C317.438 12.2823 318.972 11.4374 320.962 11.4374C324.249 11.4374 325.934 13.7117 326.015 18.2603V30.5693H321.101V18.5728C321.101 17.4848 320.951 16.7094 320.65 16.2464C320.349 15.7835 319.84 15.552 319.122 15.552C318.208 15.552 317.525 16.1133 317.074 17.236L317.108 17.8263V30.5693H312.195V18.6075C312.195 17.5311 312.05 16.7557 311.761 16.2811C311.472 15.795 310.957 15.552 310.216 15.552C309.371 15.552 308.7 16.0092 308.202 16.9235V30.5693H303.289V11.7846H307.89Z" fill="#006064"/>
<path d="M327.665 20.5693C327.665 17.7221 328.337 15.4883 329.679 13.8679C331.022 12.2476 332.879 11.4374 335.252 11.4374C337.648 11.4374 339.517 12.2476 340.86 13.8679C342.202 15.4883 342.874 17.7337 342.874 20.6041V21.802C342.874 24.6608 342.208 26.8946 340.877 28.5034C339.546 30.1122 337.683 30.9166 335.287 30.9166C332.879 30.9166 331.004 30.1122 329.662 28.5034C328.331 26.883 327.665 24.6376 327.665 21.7673V20.5693ZM332.596 21.802C332.596 25.1585 333.493 26.8367 335.287 26.8367C336.942 26.8367 337.833 25.4362 337.96 22.6353L337.978 20.5693C337.978 18.8564 337.74 17.589 337.266 16.7673C336.791 15.9339 336.12 15.5173 335.252 15.5173C334.419 15.5173 333.765 15.9339 333.29 16.7673C332.827 17.589 332.596 18.8564 332.596 20.5693V21.802Z" fill="#006064"/>
<path d="M349.021 11.7846L349.16 13.6423C350.271 12.1723 351.723 11.4374 353.517 11.4374C356.746 11.4374 358.407 13.7001 358.5 18.2256V30.5693H353.569V18.5902C353.569 17.5254 353.407 16.7557 353.083 16.2811C352.771 15.795 352.215 15.552 351.417 15.552C350.525 15.552 349.831 16.0092 349.333 16.9235V30.5693H344.403V11.7846H349.021Z" fill="#006064"/>
<path d="M368.918 25.5346C368.918 25.1179 368.715 24.736 368.31 24.3888C367.917 24.03 367.031 23.5497 365.654 22.9478C363.629 22.126 362.234 21.2754 361.47 20.3957C360.718 19.5161 360.342 18.4223 360.342 17.1145C360.342 15.471 360.932 14.1168 362.112 13.052C363.305 11.9756 364.879 11.4374 366.835 11.4374C368.895 11.4374 370.544 11.9698 371.783 13.0346C373.021 14.0994 373.64 15.5288 373.64 17.3228H368.727C368.727 15.795 368.09 15.0311 366.817 15.0311C366.296 15.0311 365.868 15.1932 365.533 15.5173C365.197 15.8413 365.029 16.2927 365.029 16.8714C365.029 17.2881 365.214 17.6585 365.585 17.9825C365.955 18.295 366.829 18.7464 368.206 19.3367C370.208 20.0774 371.621 20.905 372.442 21.8193C373.276 22.7221 373.692 23.8969 373.692 25.3436C373.692 27.0219 373.062 28.3703 371.8 29.3888C370.538 30.4073 368.883 30.9166 366.835 30.9166C365.457 30.9166 364.242 30.6504 363.189 30.1179C362.136 29.574 361.308 28.8216 360.706 27.861C360.116 26.9004 359.821 25.8645 359.821 24.7534H364.491C364.514 25.6098 364.711 26.2522 365.081 26.6804C365.463 27.1087 366.082 27.3228 366.939 27.3228C368.258 27.3228 368.918 26.7267 368.918 25.5346Z" fill="#006064"/>
<g clip-path="url(#clip1_844_62272)">
<path fill-rule="evenodd" clip-rule="evenodd" d="M35.6481 0.5H0.0925293V36.0556H35.6481V0.5ZM16.3888 18.8704V30.1296H19.3518V17.6852L11.0555 9.38889H14.9073V6.42593H6.01846V15.3148H8.98142V11.463L16.3888 18.8704Z" fill="#006064"/>
<path d="M24.6851 9.38899L19.9443 14.0557L22.0925 16.2038L26.7591 11.4631V15.3149H29.7221V6.42603H20.8332V9.38899H24.6851Z" fill="#DFF64D"/>
</g>
</g>
<defs>
<clipPath id="clip0_844_62272">
<rect width="374.815" height="40" fill="white" transform="translate(0.0925293 0.5)"/>
</clipPath>
<clipPath id="clip1_844_62272">
<rect width="35.5556" height="35.5556" fill="white" transform="translate(0.0925293 0.5)"/>
</clipPath>
</defs>
</svg>